<svg width="256" height="256" xmlns="http://www.w3.org/2000/svg" p-id="23908" version="1.1" class="icon" t="1732893929560">
 <g id="Layer_1">
  <title>Layer 1</title>
  <g stroke="null" id="svg_9">
   <g stroke="null" id="svg_1">
    <g stroke="null" id="svg_2" fill="none">
     <path stroke="null" id="svg_3" fill="#00a6ed" d="m208.52261,42.89482c30.10496,20.96321 45.87245,50.08869 46.24875,88.09006c0,39.7409 -8.83394,68.95557 -29.00425,88.8483c8.42937,6.0481 14.29986,10.3924 14.29986,10.3924c5.00495,4.37106 7.94017,12.68499 -4.98613,12.68499c-4.46871,0 -8.49525,0.05352 -12.19252,0.10705c-10.57437,0.14273 -18.48634,0.2587 -26.33244,-1.0883a65.85461,62.44359 0 0 1 -4.66626,-0.96341q-0.8467,0.33006 -1.71222,0.64227c-58.3566,-19.71434 -59.81481,-26.58312 -62.41135,-70.20444c-1.54289,-25.96761 -24.25331,-39.16106 -42.3351,-40.14231c-14.05526,-0.75824 -63.10754,-3.03298 -84.24686,-4.01421q-0.28223,-5.1739 -0.13172,-10.34779c0,-23.72855 32.48513,-43.71051 54.59347,-43.71051l61.6211,0c32.55101,0 58.9869,25.06665 58.9869,55.93162c-1.59932,21.51629 31.73251,30.38326 35.9378,6.95801c4.62865,-25.82488 -3.65021,-55.41422 -20.9982,-76.18118c-1.83451,-0.41927 -2.89759,-0.41927 -4.18647,0.41927c-11.835,11.222 -21.05467,11.70371 -36.97267,8.15335c-0.69619,-0.42819 -1.47701,-0.66903 -2.21083,-0.90097c-2.06032,-0.65119 -3.82899,-1.20427 -2.85998,-5.30771c1.31709,-5.57533 11.46811,-14.90617 11.46811,-14.90617c7.27223,-8.09089 17.93125,-9.75903 22.34353,-9.27734c2.36135,0.26762 3.5091,0.62443 4.16765,0.82068c0.56447,0.17841 0.76203,0.23194 1.05367,0.01784c0.61151,-0.46387 -0.80907,-3.27384 -0.80907,-3.27384c-1.54289,-7.80545 -1.3265,-12.54225 3.41504,-18.83119c0,0 7.53565,-10.23183 14.29986,-13.46998c6.75481,-3.23814 9.47366,0 10.94128,3.23814c4.63806,10.22291 5.22132,22.92571 -3.32095,32.33686l-0.04704,0.10705c-0.69619,1.56999 -0.91256,2.06065 -0.79966,2.47098c0.04704,0.19625 0.16935,0.35681 0.33869,0.61551q0.21637,0.28546 0.50802,0.785"/>
     <path stroke="null" id="svg_4" fill="#00a6ed" d="m49.62483,207.08576l66.04278,0l-35.09109,25.33427c-9.31371,6.69039 -20.60308,10.34779 -32.26875,10.34779l-31.81719,0c-4.79796,0 -6.86769,-5.79832 -3.01049,-8.56368l36.14478,-27.11836l0,0l-0.00002,-0.00002l-0.00002,0z"/>
     <path stroke="null" id="svg_5" fill="#aeddff" d="m181.80446,237.41551c-41.37552,-13.3897 -42.18457,-27.12726 -44.48007,-66.01177l-0.15052,-2.50666c-1.54289,-25.96761 -35.42978,-41.12356 -53.50216,-42.09589c-18.08181,-0.98127 -82.4688,0 -82.4688,0l0.31046,5.10253c5.71993,64.18308 59.15626,125.35996 131.10712,120.6321c23.45365,-1.54325 43.08774,-5.34339 59.26914,-11.5699a49.86134,47.27871 0 0 1 -10.08517,-3.55036"/>
     <path stroke="null" id="svg_6" fill="#1c1c1c" d="m127.92597,117.88065a5.73877,5.44152 0 0 1 -5.6823,-5.38797l0,-6.76173c0,-2.94375 2.57774,-5.38797 5.6823,-5.38797s5.6823,2.44422 5.6823,5.38797l0,6.76173a5.6823,5.38797 0 0 1 -5.6823,5.38797"/>
    </g>
   </g>
   <g stroke="null" id="svg_7">
    <path stroke="null" id="svg_8" fill="#00a6ed" d="m61.08383,34.31786l0,22.61509l7.01376,0l0,-12.97232l7.01832,8.31958l7.01376,-8.31958l0,12.97232l7.01832,0l0,-22.61509l-7.01832,0l-7.01376,8.31094l-7.01832,-8.31094l-7.01376,0zm33.32222,11.6405l10.5252,10.97891l10.5252,-10.97891l-7.01832,0l0,-11.6405l-7.01376,0l0,11.6405l-7.01832,0z"/>
    <path stroke="null" id="svg_10" fill="#00a6ed" fill-rule="evenodd" d="m55.82123,24.33781c-2.90492,0 -5.2626,2.23556 -5.2626,4.99001l0,32.59514c0,2.75446 2.35768,4.99001 5.2626,4.99001l62.43983,0c2.90492,0 5.2626,-2.23556 5.2626,-4.99001l0,-32.59514c0,-2.75446 -2.35768,-4.99001 -5.2626,-4.99001l-62.43983,0zm-1.75572,4.99001c0,-0.92102 0.78439,-1.66478 1.75572,-1.66478l62.43983,0c0.97134,0 1.75572,0.74374 1.75572,1.66478l0,32.59514a1.75572,1.66478 0 0 1 -1.75572,1.66478l-62.43983,0a1.75572,1.66478 0 0 1 -1.75572,-1.66478l0,-32.59514z" clip-rule="evenodd"/>
   </g>
  </g>
 </g>

</svg>