<svg width="256" height="256" xmlns="http://www.w3.org/2000/svg" t="1732893929560" class="icon" version="1.1" p-id="23908">
 <g id="Layer_1">
  <title>Layer 1</title>
  <g stroke="null">
   <g stroke="null" fill="none">
    <path stroke="null" d="m130.30676,4.15496c36.19646,0 70.13233,33.1913 73.14646,65.9879c0.29603,3.21148 1.91971,10.75578 4.01884,20.39023l0.39471,0.43059c13.03432,14.353 59.77126,78.16104 42.02737,95.89596c-5.86679,5.86679 -18.56919,2.1081 -32.70689,-5.55282c-2.51177,10.52254 -7.03297,20.63243 -13.1599,29.76453l-2.76295,32.10586s-53.71609,9.64342 -73.20028,9.36533c-18.6589,-0.26912 -70.32968,-9.36533 -70.32968,-9.36533l-3.24737,-32.11483a92.39742,92.39742 0 0 1 -12.93564,-29.60306c-14.03902,7.55326 -26.62481,11.23122 -32.44674,5.40929c-17.27742,-17.28639 26.5979,-78.25074 40.94192,-94.68493l2.0453,-9.67033c1.23795,-5.8309 2.17986,-10.22651 2.54766,-12.37049c5.77708,-33.55013 35.19175,-65.9879 75.65823,-65.9879" fill="#533566"/>
    <path stroke="null" d="m178.3893,109.87375c5.2837,-8.42341 8.27091,-19.32272 8.27091,-32.96704c0,-27.16305 -27.0554,-53.10609 -45.92959,-53.10609c-2.51177,0 -3.3909,2.70913 -4.35075,5.6784c-1.16618,3.57928 -2.44001,7.52635 -6.84459,7.52635c-4.49428,0 -5.97443,-4.12649 -7.27518,-7.75959c-1.03162,-2.8706 -1.9556,-5.45414 -4.18031,-5.45414c-18.7486,0 -46.29739,25.29716 -46.29739,53.11506c0,13.87755 3.04104,24.71407 8.25297,32.98498a70.86792,70.86792 0 0 0 -23.46715,52.68447c0,39.54251 32.52748,71.60351 72.65308,71.60351s72.65308,-32.06101 72.65308,-71.60351a70.86792,70.86792 0 0 0 -23.49406,-52.71138" fill="#fff"/>
    <path stroke="null" d="m102.58754,99.79077l53.97624,0a27.15408,27.15408 0 0 0 -27.01952,-27.0554a27.00158,27.00158 0 0 0 -26.95672,27.0554m-59.17023,148.73293a85.75916,85.75916 0 0 1 10.77372,-37.90088c15.91389,24.31039 42.96928,41.47119 73.87308,41.91972c31.75601,0.44853 59.74435,-17.13389 76.13368,-41.73134a85.75916,85.75916 0 0 1 10.67504,37.7125a3.88428,3.88428 0 0 1 -3.94707,4.02781l-163.56137,0a3.88428,3.88428 0 0 1 -3.9381,-4.02781" fill="#ff822d"/>
    <path stroke="null" d="m111.55816,56.53443c0,2.49383 1.99148,4.48531 4.48531,4.48531s4.48531,-1.99148 4.48531,-4.48531l0,-6.22561c0,-2.49383 -1.99148,-4.48531 -4.48531,-4.48531s-4.48531,1.99148 -4.48531,4.48531l0,6.22561zm26.91187,0c0,2.49383 1.99148,4.48531 4.48531,4.48531s4.48531,-1.99148 4.48531,-4.48531l0,-6.22561c0,-2.49383 -1.99148,-4.48531 -4.48531,-4.48531s-4.48531,1.99148 -4.48531,4.48531l0,6.22561z" fill="#1c1c1c"/>
   </g>
  </g>
  <g stroke="null">
   <path stroke="null" clip-rule="evenodd" d="m179.5,165.5a51.5,51.5 0 1 1 -103,0a51.5,51.5 0 0 1 103,0m-75.46221,-19.3125c2.50879,0 4.7895,1.47143 5.8195,3.76686l3.42843,7.59993l3.42843,-7.60729a6.386,6.386 0 0 1 12.2055,2.61914l0,27.64814a4.59821,4.59821 0 0 1 -9.19643,0l0,-14.54507l-0.16921,0.37521a6.87157,6.87157 0 0 1 -12.53657,0l-0.16921,-0.36786l0,14.53771a4.59821,4.59821 0 1 1 -9.19643,0l0,-27.64079c0,-3.53143 2.86193,-6.386 6.386,-6.386m46.95328,4.59821a4.59821,4.59821 0 1 0 -9.19643,0l0,18.39286l-2.75893,0a3.67857,3.67857 0 0 0 -2.60443,6.283l7.35714,7.35714a3.67857,3.67857 0 0 0 5.20886,0l7.35714,-7.35714a3.67857,3.67857 0 0 0 -2.60443,-6.283l-2.75893,0l0,-18.39286z" fill-rule="evenodd" fill="#533566"/>
  </g>
 </g>

</svg>